# xmcd
#
# Track frame offsets:
#	150
#	21459
#	44097
#	58060
#	75879
#	98900
#	117454
#	135997
#	153755
#	170649
#	189507
#	208930
#	228496
#	247068
#	262991
#
# Disc length: 3733 seconds
#
# Revision: 2
# Processed by: cddbd v1.5.2PL0 Copyright (c) Steve Scherf et al.
# Submitted via: audiograbber 1.83.01
#
DISCID=d00e930f
DTITLE=Various Artist - Chartbuster E4 25
DYEAR=1900
DGENRE=
TTITLE0=George Strait - If You Can Do Anything Else
TTITLE1=Craig Morgan - Almost Home
TTITLE2=Shania Twian - Up!
TTITLE3=Gary Allan - Man To Man
TTITLE4=America Will Survive
TTITLE5=Kellie Coffey - At The End Of The Day
TTITLE6=Diamond Rio - I Believe
TTITLE7=Jimmy Wayne - Stay Gone
TTITLE8=LeAnn Rimes - Life Goes By
TTITLE9=Joe Nichols - Brokenheartsville
TTITLE10=John Michael Montgomery - Pictures
TTITLE11=Martina McBride - Concrete Angel
TTITLE12=Keith Urban - Raining On Sunday
TTITLE13=Mark Chesnutt - She Was
TTITLE14=Kenny Chesney - No Shoes, No Shirt, No Problems
EXTD=
EXTT0=
EXTT1=
EXTT2=
EXTT3=
EXTT4=
EXTT5=
EXTT6=
EXTT7=
EXTT8=
EXTT9=
EXTT10=
EXTT11=
EXTT12=
EXTT13=
EXTT14=
PLAYORDER=
